<svg xmlns="http://www.w3.org/2000/svg" xmlns:xlink="http://www.w3.org/1999/xlink" version="1.1" x="0px" y="0px" viewBox="0 0 1000 1000" enable-background="new 0 0 1000 1000" xml:space="preserve">
                            <metadata> Svg Vector Icons : http://www.onlinewebfonts.com/icon </metadata>
                            <g><g><g><g><path d="M688.5,377.4v52.2c0,0-11.7-8.2-25.9,13.7l4.9-66C667.5,377.3,673.4,383.2,688.5,377.4z M688.6,363.3c0,6.4-5.2,11.6-11.6,11.6c-6.4,0-11.6-5.2-11.6-11.6c0-4.9,3-9.1,7.2-10.8v-37.7l-38.7,23.8v32.8l-0.8-0.3c0.9,1.3,1.6,2.6,1.6,3.9c0,14.9-60.3,27-134.7,27c-74.3,0-134.5-12.1-134.5-27c0-1.3,0.6-2.6,1.6-3.9l-0.8,0.3v-32.7l-88.7-51.5L500,168.3l222.5,118.8l-41.1,22.7v42.7C685.6,354.2,688.6,358.5,688.6,363.3z M500,279.4c24.6,0,44.7,1.9,61.3,4.8L500,266.1c-105.1,0-130.9,38.8-130.9,38.8v9C378,304.3,409.8,279.4,500,279.4z M619.5,375c0-9.3-53.5-16.8-119.5-16.8c-66,0-119.4,7.5-119.4,16.8c0,9.2,53.4,16.7,119.4,16.7C566,391.7,619.5,384.1,619.5,375z M631,304.8l-23.6-7c12.9,6.1,20.1,12.2,23.6,16V304.8z M808.7,318.7C808.7,489.2,500,990,500,990S191.3,489.2,191.3,318.7C191.3,148.3,329.5,10,500,10C670.5,10,808.7,148.3,808.7,318.7z M738.9,318.7C738.9,187,631.7,79.9,500,79.9c-131.8,0-238.9,107.2-238.9,238.9c0,131.7,107.2,238.9,238.9,238.9C631.7,557.6,738.9,450.4,738.9,318.7z" style="fill:#fff" /></g></g></g><g/><g/><g/><g/><g/><g/><g/><g/><g/><g/><g/><g/><g/><g/><g/></g>
                        </svg>